<?xml version="1.0" standalone="no"?><!DOCTYPE svg PUBLIC "-//W3C//DTD SVG 1.1//EN" "http://www.w3.org/Graphics/SVG/1.1/DTD/svg11.dtd"><svg t="1718857104434" class="icon" viewBox="0 0 1024 1024" version="1.1" xmlns="http://www.w3.org/2000/svg" p-id="16567" xmlns:xlink="http://www.w3.org/1999/xlink" width="200" height="200"><path d="M755.11 260.43l-96.98 55.99V204.45l0.01-0.01z" fill="#8a8a8a" p-id="16568" data-spm-anchor-id="a313x.search_index.0.i26.57753a81d9ssZw" class=""></path><path d="M755.11 260.43v111.99l-96.98 55.98V316.42z" fill="#bfbfbf" p-id="16569" data-spm-anchor-id="a313x.search_index.0.i33.57753a81d9ssZw" class=""></path><path d="M658.13 316.42V428.4l-96.96-55.98z" fill="#515151" p-id="16570" data-spm-anchor-id="a313x.search_index.0.i21.57753a81d9ssZw" class=""></path><path d="M755.11 484.39v111.98l-96.97 55.99h-0.01V540.38z" fill="#bfbfbf" p-id="16571" data-spm-anchor-id="a313x.search_index.0.i32.57753a81d9ssZw" class=""></path><path d="M755.11 484.39l-96.98 55.99-96.96-55.99 96.96-55.98z" fill="#8a8a8a" p-id="16572" data-spm-anchor-id="a313x.search_index.0.i27.57753a81d9ssZw" class=""></path><path d="M561.17 484.39l96.96 55.99v111.97l-96.96-55.98h-0.02V484.39z" fill="#515151" p-id="16573" data-spm-anchor-id="a313x.search_index.0.i22.57753a81d9ssZw" class=""></path><path d="M561.17 708.36l96.96-56v111.99l-96.96 55.98h-0.02v0.01l-96.96 55.98h-0.01V764.33l96.97-55.97z" fill="#bfbfbf" p-id="16574" data-spm-anchor-id="a313x.search_index.0.i31.57753a81d9ssZw" class=""></path><path d="M464.18 764.35v111.97l-96.96-55.99z" fill="#515151" p-id="16575" data-spm-anchor-id="a313x.search_index.0.i23.57753a81d9ssZw" class=""></path><path d="M658.13 652.35v0.01l-96.96 56h-0.02l-96.97 55.97V652.35l96.97-55.98h0.02z" fill="#8a8a8a" p-id="16576" data-spm-anchor-id="a313x.search_index.0.i28.57753a81d9ssZw" class=""></path><path d="M367.22 484.39l96.96-55.98v335.94l-96.96 55.98h-0.02V484.39z" fill="#bfbfbf" p-id="16577" data-spm-anchor-id="a313x.search_index.0.i29.57753a81d9ssZw" class=""></path><path d="M367.2 484.39v335.94l-96.97-56V428.41l0.01-0.01z" fill="#515151" p-id="16578" data-spm-anchor-id="a313x.search_index.0.i19.57753a81d9ssZw" class=""></path><path d="M464.18 428.4v0.01l-96.96 55.98h-0.02l-96.96-55.99 96.96-55.98h0.02z" fill="#8a8a8a" p-id="16579" data-spm-anchor-id="a313x.search_index.0.i24.57753a81d9ssZw" class=""></path><path d="M464.18 316.42V428.4l-96.96-55.98h-0.02V260.43z" fill="#515151" p-id="16580" data-spm-anchor-id="a313x.search_index.0.i20.57753a81d9ssZw" class=""></path><path d="M658.13 204.44v0.01l-96.96 55.98h-0.02v0.02l-96.96 55.97h-0.01l-96.98-55.99 96.98-55.99 96.97-55.98v-0.01h0.02z" fill="#8a8a8a" p-id="16581" data-spm-anchor-id="a313x.search_index.0.i25.57753a81d9ssZw" class=""></path><path d="M464.19 316.42l96.96-55.97v-0.02h0.02l96.96-55.98v111.97l-96.96 56h-0.02l-96.96 55.98h-0.01V316.42z" fill="#bfbfbf" p-id="16582" data-spm-anchor-id="a313x.search_index.0.i30.57753a81d9ssZw" class=""></path></svg>